<?xml version="1.0" standalone="no"?>
<!DOCTYPE svg PUBLIC "-//W3C//DTD SVG 20010904//EN"
 "http://www.w3.org/TR/2001/REC-SVG-20010904/DTD/svg10.dtd">
<svg version="1.0" xmlns="http://www.w3.org/2000/svg"
 width="508.000000pt" height="491.000000pt" viewBox="0 0 508.000000 491.000000"
 preserveAspectRatio="xMidYMid meet">
<metadata>
Created by potrace 1.16, written by Peter Selinger 2001-2019
</metadata>
<g transform="translate(0.000000,491.000000) scale(0.100000,-0.100000)"
fill="#000000" stroke="none">
<path d="M2360 4274 c-298 -34 -498 -87 -719 -190 -418 -195 -760 -534 -966
-958 -194 -398 -250 -853 -160 -1294 150 -733 704 -1330 1426 -1536 385 -110
825 -101 1202 25 687 228 1211 814 1351 1509 100 499 14 1021 -237 1439 -97
162 -163 247 -297 385 -317 326 -702 528 -1150 601 -92 15 -380 27 -450 19z
m760 -1061 c80 -39 152 -109 193 -188 30 -57 32 -66 32 -170 0 -104 -2 -114
-32 -176 -41 -82 -111 -150 -199 -191 -59 -28 -77 -31 -195 -36 -71 -3 -132
-8 -134 -12 -2 -4 -5 -125 -5 -269 -1 -291 6 -268 -68 -212 l-32 25 0 574 0
574 178 -4 c199 -4 222 -10 294 -85 54 -55 78 -115 78 -193 0 -130 -80 -232
-210 -266 -35 -10 -39 -13 -17 -13 36 -1 115 39 159 81 54 53 80 116 80 197 0
119 -62 217 -167 267 -47 22 -61 24 -232 24 l-183 0 0 -574 0 -574 -45 -46
c-25 -25 -48 -46 -50 -46 -3 0 -5 304 -5 676 l0 675 248 -3 248 -3 64 -32z
m-796 -23 l46 -49 0 -279 c0 -203 -3 -281 -12 -290 -9 -9 -9 -12 0 -12 9 0 12
-64 10 -272 l-3 -273 -161 -3 c-144 -2 -168 0 -218 18 -98 37 -176 150 -176
255 0 95 66 201 155 248 35 19 61 23 210 27 l170 6 -165 2 c-142 1 -171 -1
-206 -17 -55 -25 -109 -75 -142 -130 -24 -41 -27 -56 -27 -136 0 -80 3 -95 27
-135 36 -61 83 -105 143 -131 45 -21 66 -23 225 -23 l175 -1 3 575 2 574 47
48 c26 27 51 48 55 48 4 0 8 -304 8 -675 l0 -676 -253 3 -253 3 -65 32 c-80
40 -160 120 -197 200 -24 51 -27 70 -27 158 0 93 2 105 32 166 40 81 117 160
192 196 50 24 70 28 196 33 l140 5 3 278 c1 152 6 277 11 277 4 0 29 -22 55
-50z m-944 -1490 c74 -38 103 -143 58 -210 -36 -53 -69 -71 -136 -77 l-62 -6
0 -105 c0 -104 0 -105 -20 -87 -19 17 -21 17 -40 0 -20 -18 -20 -17 -20 243
l0 262 90 0 c71 0 99 -4 130 -20z m391 0 c71 -37 79 -62 79 -244 0 -183 -9
-209 -84 -245 -54 -27 -83 -26 -136 2 -71 37 -80 65 -80 247 0 148 1 157 24
191 46 67 123 86 197 49z m1316 4 c76 -37 109 -149 64 -218 -19 -28 -19 -29 0
-60 15 -25 19 -50 19 -130 0 -98 0 -99 -20 -81 -19 17 -21 17 -40 0 -20 -18
-20 -17 -20 52 0 121 -20 149 -101 141 l-34 -3 -3 -104 c-3 -102 -3 -103 -22
-86 -19 17 -21 17 -40 0 -20 -18 -20 -17 -20 243 l0 262 91 0 c64 0 101 -5
126 -16z m393 11 c0 -3 -6 -14 -12 -26 -11 -17 -10 -22 4 -33 21 -15 13 -26
-19 -26 l-23 0 0 -175 0 -175 32 0 31 0 -22 -23 c-19 -21 -20 -25 -6 -37 29
-24 14 -30 -85 -30 -55 0 -100 3 -100 7 0 3 7 14 15 23 14 15 14 18 0 30 -22
18 -18 30 10 30 l25 0 0 175 0 175 -25 0 c-27 0 -33 18 -13 38 9 9 9 15 0 24
-24 24 -10 28 88 28 55 0 100 -2 100 -5z m330 -18 c48 -25 80 -75 80 -124 0
-51 -25 -40 -49 22 -8 22 -10 23 -7 6 5 -26 -9 -61 -24 -61 -4 0 -11 13 -15
29 -14 65 -87 83 -113 28 -19 -40 4 -70 81 -105 95 -44 136 -102 124 -178 -17
-106 -149 -157 -239 -92 -34 23 -49 50 -58 101 -8 41 3 56 26 36 11 -9 18 -9
26 -1 17 17 28 15 28 -7 0 -28 38 -71 63 -71 27 0 41 9 55 36 17 32 -6 66 -64
94 -103 51 -134 89 -134 163 0 60 21 98 69 126 47 27 98 26 151 -2z m-1790 -2
c19 18 20 16 22 -196 l3 -214 103 -3 c101 -3 116 -8 87 -32 -14 -12 -14 -15 0
-30 9 -10 13 -20 8 -23 -4 -2 -70 -5 -145 -6 l-138 -2 0 262 c0 261 0 262 20
244 19 -17 21 -17 40 0z m600 -127 c29 -73 58 -139 63 -145 5 -7 25 -13 43
-13 37 0 44 -13 17 -29 -17 -9 -17 -10 0 -28 21 -24 22 -33 2 -33 -8 0 -15 -5
-15 -10 0 -6 7 -27 15 -47 22 -52 20 -66 -6 -52 -21 11 -38 0 -39 -23 0 -5 -4
-8 -9 -8 -5 0 -22 32 -37 70 l-27 70 -67 0 -67 0 -28 -70 c-15 -38 -32 -70
-37 -70 -4 0 -8 3 -8 8 -1 23 -18 34 -39 23 -26 -14 -28 0 -6 52 8 20 15 41
15 47 0 5 -7 10 -15 10 -19 0 -19 9 0 30 14 15 14 18 0 30 -24 20 -18 30 19
30 18 0 38 6 43 13 5 6 27 57 48 112 58 150 65 165 74 165 5 0 33 -60 61 -132z"/>
<path d="M2787 3014 c-10 -10 -9 -306 2 -323 7 -10 32 -12 112 -10 85 4 111 8
139 26 48 30 80 89 80 147 0 58 -19 97 -67 133 -34 26 -44 28 -147 31 -61 2
-114 0 -119 -4z"/>
<path d="M2055 2451 c-76 -19 -125 -75 -133 -150 -6 -62 18 -114 71 -152 39
-28 44 -29 154 -29 l113 0 -2 168 -3 167 -85 2 c-47 1 -98 -2 -115 -6z"/>
<path d="M1654 1609 c-17 -19 -19 -37 -19 -156 0 -130 1 -136 24 -154 33 -27
66 -24 90 7 19 24 21 40 21 149 0 109 -2 125 -21 149 -25 32 -68 35 -95 5z"/>
<path d="M2954 1616 c-3 -7 -4 -35 -2 -62 l3 -49 46 -3 c35 -2 49 2 63 17 23
26 24 66 1 91 -22 24 -102 28 -111 6z"/>
</g>
</svg>
