<?xml version="1.0" standalone="no"?>
<!DOCTYPE svg PUBLIC "-//W3C//DTD SVG 20010904//EN"
 "http://www.w3.org/TR/2001/REC-SVG-20010904/DTD/svg10.dtd">
<svg version="1.0" xmlns="http://www.w3.org/2000/svg"
 width="508.000000pt" height="491.000000pt" viewBox="0 0 508.000000 491.000000"
 preserveAspectRatio="xMidYMid meet">
<metadata>
Created by potrace 1.16, written by Peter Selinger 2001-2019
</metadata>
<g transform="translate(0.000000,491.000000) scale(0.100000,-0.100000)"
fill="#000000" stroke="none">
<path d="M2205 4255 c-610 -98 -1136 -452 -1450 -978 -138 -232 -223 -478
-266 -772 -17 -114 -14 -418 5 -548 85 -581 402 -1078 901 -1410 95 -63 292
-165 360 -187 22 -7 45 -16 50 -20 15 -12 139 -49 240 -71 279 -63 622 -66
885 -7 263 58 496 157 713 305 606 410 945 1110 888 1829 -29 358 -129 653
-323 954 -312 484 -819 811 -1402 905 -118 19 -483 19 -601 0z m155 -1390 l0
-283 -172 -4 c-195 -4 -214 -9 -292 -79 -67 -59 -96 -124 -96 -214 0 -90 29
-155 96 -214 79 -70 96 -75 302 -79 l182 -4 0 578 0 578 47 48 c26 26 51 48
55 48 4 0 8 -304 8 -676 l0 -676 -253 4 -253 3 -66 33 c-79 39 -159 121 -197
202 -22 48 -26 68 -26 155 0 113 14 154 81 243 83 112 180 152 364 152 l120 0
0 287 0 287 50 -53 50 -53 0 -283z m716 368 c140 -47 253 -181 272 -323 18
-126 -17 -234 -106 -331 -86 -94 -187 -128 -380 -129 l-83 0 3 -279 3 -279
-51 46 -52 47 -1 286 -1 286 173 5 c190 5 219 12 293 73 63 52 99 132 99 220
-1 86 -26 146 -85 203 -77 75 -113 86 -295 89 -88 2 -170 0 -182 -3 l-23 -6 0
-577 0 -577 -50 -49 -50 -49 0 682 0 682 233 0 c191 0 242 -3 283 -17z m-37
-119 c62 -18 132 -78 163 -138 51 -100 29 -234 -53 -316 -70 -70 -109 -80
-306 -80 l-163 0 0 275 0 275 153 0 c110 0 168 -4 206 -16z m-677 -816 c2
-145 2 -269 0 -276 -4 -11 -41 -13 -181 -10 l-177 3 -52 34 c-97 62 -134 126
-135 236 -2 85 24 146 85 200 74 67 102 75 289 75 l167 0 4 -262z m-950 -626
c42 -41 43 -44 43 -107 0 -61 -2 -67 -36 -101 -36 -36 -84 -53 -147 -54 l-33
0 3 -105 c2 -58 1 -105 -1 -105 -3 0 -13 7 -23 17 -17 15 -19 15 -38 -2 -20
-18 -20 -17 -20 244 l0 263 105 -4 105 -3 42 -43z m355 32 c19 -9 45 -33 59
-53 23 -34 24 -42 24 -196 0 -138 -3 -164 -18 -188 -58 -87 -169 -97 -242 -22
l-35 36 0 174 0 174 35 36 c19 21 44 41 55 45 33 14 85 11 122 -6z m1355 -32
c42 -41 43 -44 43 -106 0 -48 -5 -69 -18 -84 -18 -19 -17 -21 2 -58 17 -31 21
-57 21 -133 0 -93 0 -94 -20 -76 -19 17 -21 17 -39 1 -18 -17 -19 -15 -22 73
-5 107 -13 118 -84 122 l-50 3 0 -107 c0 -59 -2 -107 -4 -107 -3 0 -13 7 -23
17 -17 15 -19 15 -38 -2 -20 -18 -20 -17 -20 244 l0 263 105 -4 105 -3 42 -43z
m358 38 c0 -5 -8 -15 -19 -22 -17 -11 -17 -12 8 -34 l26 -23 -32 -1 -33 0 0
-175 0 -175 33 0 32 -1 -25 -22 -26 -22 26 -22 25 -22 -107 -1 c-107 0 -123 5
-93 30 14 11 13 15 -7 34 l-23 21 33 3 32 3 0 175 0 174 -30 0 c-16 0 -30 3
-30 6 0 15 37 33 68 34 l32 0 0 -220 c0 -140 4 -220 10 -220 6 0 10 82 10 225
l0 225 -43 0 c-40 0 -67 13 -67 32 0 4 45 8 100 8 59 0 100 -4 100 -10z m329
-8 c3 -5 16 -14 27 -20 28 -15 54 -71 54 -118 0 -36 -1 -37 -19 -20 -10 10
-22 33 -25 51 -7 33 -47 76 -70 74 -6 0 -1 -5 11 -11 18 -9 53 -62 53 -80 0
-8 -37 -48 -44 -48 -3 0 -6 15 -6 34 0 42 -22 66 -60 66 -21 0 -35 -8 -47 -26
-15 -23 -15 -29 -2 -53 8 -14 33 -36 56 -47 119 -60 153 -98 153 -168 0 -79
-63 -138 -149 -139 -90 -1 -151 57 -151 143 l1 45 18 -22 c18 -22 19 -22 36
-3 23 26 38 26 30 0 -6 -20 9 -59 29 -72 36 -25 86 5 86 51 0 33 -16 48 -98
91 -82 43 -106 81 -100 155 5 58 21 84 73 117 23 15 42 18 84 14 30 -3 57 -9
60 -14z m-1824 -9 c12 -17 14 -17 34 1 l21 19 0 -216 0 -217 112 0 112 0 -22
-22 -22 -22 22 -23 21 -23 -151 0 -152 0 0 260 c0 143 3 260 6 260 4 0 13 -8
19 -17z m638 -133 l59 -150 46 0 47 0 -25 -19 c-23 -19 -24 -20 -7 -39 22 -24
22 -32 -2 -32 -19 0 -19 -2 4 -57 13 -32 22 -60 19 -62 -2 -2 -14 4 -28 12
-24 16 -25 16 -31 -13 -4 -17 -10 -30 -13 -30 -4 0 -20 34 -36 75 l-29 75 -68
0 -68 0 -28 -75 c-26 -69 -43 -93 -43 -62 -1 28 -17 40 -40 27 -12 -6 -24 -10
-26 -7 -2 2 7 29 21 60 24 55 24 57 5 57 -24 0 -25 8 -4 32 16 16 15 19 -7 37
l-24 20 46 1 45 0 59 150 c32 83 61 150 64 150 4 0 32 -67 64 -150z"/>
<path d="M2782 2853 l3 -168 99 -3 c83 -2 105 0 142 18 62 30 87 71 92 145 3
50 0 65 -20 94 -46 67 -66 76 -199 79 l-119 4 2 -169z"/>
<path d="M2024 2441 c-129 -59 -136 -242 -12 -307 18 -10 62 -14 138 -14 l110
0 -2 168 -3 167 -95 2 c-75 2 -103 -1 -136 -16z"/>
<path d="M1242 1563 l3 -68 44 3 c59 4 71 16 71 68 0 51 -16 64 -80 64 l-41 0
3 -67z"/>
<path d="M1654 1609 c-17 -19 -19 -37 -19 -154 0 -117 2 -135 19 -154 22 -24
62 -27 91 -5 18 13 20 29 23 153 3 133 3 140 -19 160 -29 27 -71 27 -95 0z"/>
<path d="M2950 1565 l0 -65 54 0 c63 0 78 13 78 67 0 47 -21 63 -84 63 l-48 0
0 -65z"/>
</g>
</svg>
