<?xml version="1.0" standalone="no"?>
<!DOCTYPE svg PUBLIC "-//W3C//DTD SVG 20010904//EN"
 "http://www.w3.org/TR/2001/REC-SVG-20010904/DTD/svg10.dtd">
<svg version="1.0" xmlns="http://www.w3.org/2000/svg"
 width="930.000000pt" height="882.000000pt" viewBox="0 0 930.000000 882.000000"
 preserveAspectRatio="xMidYMid meet">
<metadata>
Created by potrace 1.16, written by Peter Selinger 2001-2019
</metadata>
<g transform="translate(0.000000,882.000000) scale(0.100000,-0.100000)"
fill="#000000" stroke="none">
<path d="M2090 8746 c-116 -31 -233 -124 -284 -225 -114 -223 -34 -476 189
-602 l55 -31 0 -141 0 -142 -55 -29 c-69 -36 -152 -117 -188 -185 -118 -215
-28 -494 196 -607 l47 -24 0 -165 c0 -103 4 -165 10 -165 6 0 10 59 10 158 l0
157 140 0 140 0 0 -157 c0 -99 4 -158 10 -158 6 0 10 63 10 168 l0 168 45 22
c125 60 221 203 240 352 8 70 -15 183 -51 251 -36 66 -113 142 -180 180 l-54
31 0 146 1 147 61 35 c155 89 247 277 219 449 -36 220 -225 382 -444 380 -40
0 -92 -6 -117 -13z m295 -50 c88 -44 166 -121 207 -204 26 -52 33 -80 36 -148
5 -99 -7 -154 -54 -241 -90 -163 -290 -247 -477 -198 -105 27 -153 58 -222
143 -141 170 -126 412 34 565 99 95 189 129 321 122 71 -4 96 -10 155 -39z
m-35 -955 l0 -133 -22 6 c-44 13 -174 18 -215 8 l-43 -10 0 132 0 131 140 0
140 0 0 -134z m-45 -146 c86 -23 149 -61 215 -131 83 -89 105 -149 105 -284 0
-99 -2 -109 -34 -175 -49 -100 -125 -172 -221 -210 -66 -26 -87 -30 -175 -30
-93 1 -105 3 -175 36 -84 39 -162 117 -201 198 -76 160 -48 337 73 467 113
120 264 167 413 129z"/>
<path d="M389 8561 c-23 -23 -29 -38 -29 -71 0 -33 6 -48 29 -71 50 -49 121
-29 142 41 30 100 -71 172 -142 101z"/>
<path d="M570 8423 c0 -56 4 -93 10 -93 6 0 10 16 10 35 0 32 2 34 28 29 59
-12 98 61 57 106 -12 13 -29 18 -61 17 l-44 -2 0 -92z"/>
<path d="M1444 8512 c-6 -4 -17 -18 -23 -30 -27 -50 34 -115 75 -81 14 11 15
10 12 -11 -3 -22 -8 -25 -45 -24 -46 1 -55 -9 -24 -26 30 -15 55 -12 79 10 19
18 22 32 22 93 l0 73 -42 1 c-24 1 -48 -1 -54 -5z"/>
<path d="M6686 7424 c-14 -14 -16 -82 -16 -603 l0 -588 -37 -6 c-102 -17 -240
-125 -292 -228 -90 -181 -58 -392 82 -532 176 -176 442 -178 620 -4 115 112
163 284 122 440 -21 83 -50 133 -111 197 -73 77 -137 110 -256 135 l-28 5 0
578 c0 507 -2 580 -16 600 -18 26 -46 28 -68 6z m-12 -1223 c8 -13 96 -12 96
1 0 14 64 4 134 -23 150 -56 272 -265 250 -429 -24 -184 -133 -318 -303 -370
-145 -45 -317 -2 -414 104 -49 53 -104 165 -118 240 -17 96 10 220 66 296 13
18 22 37 19 42 -3 5 -2 7 3 6 4 -1 28 16 51 37 51 47 129 92 169 98 15 2 31 5
35 6 4 0 9 -3 12 -8z"/>
<path d="M6597 6156 c-180 -64 -298 -264 -257 -438 47 -199 202 -324 400 -322
92 1 170 29 231 82 23 20 46 36 51 34 4 -1 8 4 8 11 0 8 9 22 19 31 27 25 68
130 76 198 8 66 -6 140 -40 208 -31 61 -138 166 -180 177 -5 1 -35 11 -65 22
-75 28 -158 26 -243 -3z m286 -34 c80 -37 145 -101 184 -180 25 -50 28 -68 28
-152 0 -87 -3 -101 -32 -160 -38 -77 -97 -137 -173 -177 -50 -26 -64 -28 -160
-28 -100 0 -108 1 -168 34 -120 65 -193 177 -200 306 -15 281 269 476 521 357z"/>
<path d="M6883 7423 l-53 -16 0 -258 0 -258 41 14 c76 27 155 28 318 5 158
-23 230 -23 309 0 l42 13 0 260 c0 235 -1 259 -16 253 -9 -4 -58 -12 -108 -18
-76 -9 -110 -8 -206 5 -140 21 -257 21 -327 0z"/>
<path d="M1245 6206 c-116 -28 -244 -127 -296 -227 -130 -256 8 -560 291 -640
57 -16 198 -13 250 5 101 35 200 116 256 211 73 126 69 330 -9 450 -111 168
-304 247 -492 201z m222 -26 c91 -21 220 -126 261 -212 35 -72 55 -166 48
-230 -24 -231 -230 -403 -461 -385 -230 19 -385 186 -386 417 0 118 39 216
116 290 20 19 48 46 62 60 14 14 22 19 18 11 -4 -7 6 -3 23 9 17 13 52 29 79
36 58 15 182 17 240 4z"/>
<path d="M1210 6134 c-109 -43 -163 -93 -213 -194 -30 -61 -32 -72 -32 -170 0
-100 2 -108 33 -166 78 -143 198 -217 352 -217 115 -1 190 25 253 87 115 112
141 173 135 320 -4 115 -25 160 -116 250 -84 84 -142 108 -262 113 -72 2 -95
-1 -150 -23z m251 -14 c115 -36 197 -114 240 -229 30 -80 24 -196 -15 -274
-35 -69 -104 -137 -176 -174 -49 -25 -65 -28 -155 -28 -87 0 -107 3 -157 27
-79 37 -142 98 -181 177 -29 59 -32 74 -32 156 0 78 4 97 28 147 85 172 270
254 448 198z"/>
<path d="M2969 6150 c-99 -29 -224 -129 -273 -216 -46 -83 -59 -138 -54 -242
3 -85 8 -106 38 -167 41 -86 131 -177 216 -220 51 -25 72 -30 161 -33 85 -4
112 -1 167 18 165 55 284 205 302 382 21 206 -120 412 -325 472 -57 17 -186
20 -232 6z m211 -26 c164 -37 290 -176 322 -354 27 -157 -71 -348 -222 -433
-106 -59 -255 -62 -375 -8 -173 78 -278 290 -235 472 36 153 161 283 310 323
72 19 116 19 200 0z"/>
<path d="M7377 5943 c-15 -14 -1 -193 14 -193 5 0 9 18 9 40 0 36 2 40 26 40
28 0 65 16 76 34 15 21 8 55 -14 70 -22 16 -99 22 -111 9z"/>
<path d="M3774 5877 c-10 -28 1 -180 14 -185 8 -2 12 9 12 36 0 38 1 40 39 46
25 4 46 15 55 28 21 30 20 44 -4 68 -24 24 -107 29 -116 7z"/>
<path d="M490 5770 c0 -60 4 -100 10 -100 6 0 10 18 10 40 0 38 2 40 31 40 26
0 33 -5 46 -40 9 -22 22 -40 30 -40 18 0 9 33 -18 72 -19 27 -19 27 1 38 27
14 27 65 1 80 -11 5 -40 10 -65 10 l-46 0 0 -100z"/>
<path d="M6630 4824 c-64 -24 -150 -74 -193 -114 -238 -219 -178 -605 116
-744 386 -183 778 254 570 637 -36 66 -134 154 -211 190 -54 25 -77 30 -165
33 -56 2 -109 1 -117 -2z m248 -46 c106 -34 208 -137 252 -256 29 -76 29 -207
2 -280 -41 -106 -117 -198 -198 -240 -94 -48 -202 -63 -289 -41 -22 5 -47 11
-56 13 -120 29 -244 187 -270 343 -18 111 15 242 80 310 12 12 21 26 21 31 0
5 10 17 23 26 12 9 15 14 7 10 -8 -4 -11 -3 -7 1 4 5 13 10 20 11 7 1 34 16
60 35 94 66 221 80 355 37z"/>
<path d="M6610 4754 c-99 -36 -188 -111 -230 -194 -29 -57 -53 -168 -46 -215
12 -78 46 -161 87 -210 23 -28 46 -52 52 -54 7 -2 16 -10 20 -17 4 -8 13 -14
19 -14 6 0 19 -6 27 -14 70 -60 306 -67 372 -10 9 8 19 11 24 7 4 -5 5 -2 1 5
-4 7 -2 12 6 12 24 0 108 87 137 143 83 158 57 328 -70 456 -76 77 -158 112
-269 117 -62 3 -97 0 -130 -12z m219 -20 c76 -21 157 -79 203 -145 131 -187
66 -438 -142 -546 -50 -26 -64 -28 -160 -28 -100 0 -108 1 -168 34 -205 111
-265 363 -130 545 95 128 248 182 397 140z"/>
<path d="M2062 4786 c-118 -44 -208 -124 -261 -231 -110 -227 -16 -492 215
-606 165 -82 384 -41 513 96 128 135 162 330 86 500 -28 64 -120 165 -183 202
-112 66 -256 81 -370 39z m317 -37 c91 -44 188 -144 220 -224 47 -119 39 -258
-20 -377 -23 -45 -116 -141 -160 -164 -195 -100 -413 -59 -545 103 -65 80 -88
149 -89 268 0 82 4 110 23 158 31 76 125 185 191 221 118 64 268 70 380 15z"/>
<path d="M2105 4736 c-124 -41 -206 -107 -251 -201 -29 -61 -46 -141 -42 -192
4 -44 -9 -43 208 -18 69 8 140 16 158 18 l33 3 4 202 3 202 -37 -1 c-20 0 -54
-6 -76 -13z m83 -188 l-3 -183 -145 -17 c-80 -9 -158 -18 -175 -20 -37 -4 -42
17 -26 94 31 143 137 258 270 294 88 24 82 37 79 -168z"/>
<path d="M490 4500 l0 -100 49 0 c71 0 111 35 111 95 0 24 -3 51 -6 60 -10 25
-58 45 -109 45 l-45 0 0 -100z"/>
<path d="M2135 3561 c-59 -15 -156 -74 -208 -127 -145 -146 -174 -372 -71
-550 35 -59 130 -146 195 -178 169 -82 371 -44 502 93 220 231 157 585 -129
727 -63 31 -82 36 -165 39 -52 3 -108 1 -124 -4z m253 -43 c29 -11 82 -44 116
-74 185 -156 206 -420 50 -611 -69 -84 -195 -143 -306 -143 -68 0 -217 40
-242 66 -9 8 -16 13 -16 9 0 -18 -103 115 -125 161 -79 166 -51 354 71 479 86
88 144 119 254 134 72 9 133 3 198 -21z"/>
<path d="M2115 3490 c-95 -37 -133 -65 -189 -140 -84 -112 -100 -277 -38 -402
17 -34 39 -72 50 -83 111 -116 241 -163 377 -135 196 40 325 213 313 416 -8
119 -48 188 -168 286 -90 73 -240 98 -345 58z m258 -30 c149 -56 259 -250 228
-401 -27 -130 -102 -227 -217 -281 -61 -28 -71 -30 -157 -26 -74 3 -102 9
-143 31 -70 36 -111 72 -151 134 -90 141 -76 320 33 442 109 122 257 158 407
101z"/>
<path d="M6630 3551 c-56 -14 -157 -77 -210 -130 -95 -94 -137 -212 -127 -354
14 -200 176 -379 370 -406 98 -14 200 1 272 40 210 114 298 361 209 584 -47
118 -179 231 -309 264 -43 12 -164 13 -205 2z m235 -38 c233 -70 357 -362 250
-585 -55 -113 -132 -185 -242 -224 -80 -28 -179 -32 -242 -9 -23 8 -45 14 -49
13 -4 -1 -17 3 -29 10 -13 7 -23 10 -23 7 0 -7 -55 41 -100 87 -75 77 -130
238 -115 338 10 67 39 142 74 193 16 24 27 48 23 52 -4 3 0 5 8 3 8 -2 14 3
12 10 -1 8 2 11 8 7 5 -3 10 -1 10 4 0 6 5 11 11 11 5 0 27 13 47 30 44 34
106 58 182 69 64 9 106 5 175 -16z"/>
<path d="M6615 3483 c-158 -57 -247 -161 -275 -320 -11 -61 -11 -80 3 -135 21
-83 55 -142 114 -200 117 -113 283 -146 428 -85 80 34 166 116 202 194 52 114
52 237 -3 344 -28 57 -130 151 -200 185 -72 35 -196 43 -269 17z m200 -17
c109 -29 197 -101 251 -206 26 -49 29 -65 29 -150 0 -84 -3 -102 -29 -157 -33
-73 -107 -148 -181 -183 -39 -19 -71 -25 -142 -28 -86 -4 -96 -2 -157 26 -87
41 -149 100 -188 180 -103 209 12 454 242 518 60 16 114 17 175 0z"/>
<path d="M468 3178 c-2 -13 -2 -58 0 -100 l4 -78 48 0 c84 0 135 65 109 140
-14 38 -55 60 -113 60 -39 0 -45 -3 -48 -22z"/>
<path d="M1036 3193 c-3 -3 -6 -48 -6 -98 l0 -92 45 -1 c53 -1 85 23 85 63 0
47 -59 82 -88 53 -9 -9 -12 -3 -12 29 0 40 -10 60 -24 46z"/>
<path d="M7417 3174 c-4 -4 -7 -49 -7 -101 0 -75 3 -93 15 -93 11 0 15 18 17
78 l3 77 28 -47 c15 -27 32 -48 36 -48 5 0 19 20 32 45 13 25 27 45 31 45 5 0
8 -34 8 -75 0 -43 4 -75 10 -75 6 0 10 40 10 100 0 120 -12 129 -60 44 l-32
-55 -32 52 c-31 52 -46 66 -59 53z"/>
<path d="M4653 2779 c-34 -4 -75 -15 -92 -24 l-32 -16 1 -248 c1 -137 4 -251
6 -254 3 -3 22 2 42 11 51 22 217 22 365 -1 119 -19 209 -15 281 13 l26 10 0
256 0 257 -32 -7 c-86 -17 -177 -26 -218 -21 -25 3 -74 10 -110 15 -111 15
-173 18 -237 9z"/>
<path d="M4391 2767 c-8 -10 -12 -188 -13 -601 l-3 -587 -58 -20 c-76 -26
-128 -59 -186 -120 -214 -224 -148 -576 134 -715 174 -86 391 -44 523 101 167
184 161 447 -14 623 -70 69 -138 106 -236 126 l-63 13 -3 583 c-1 410 -5 587
-13 597 -15 17 -53 17 -68 0z m167 -1222 c77 -18 115 -37 165 -81 20 -19 42
-34 49 -34 6 0 9 -3 5 -6 -3 -3 3 -16 14 -28 11 -11 34 -50 52 -85 26 -53 32
-78 35 -152 7 -142 -28 -237 -122 -330 -130 -129 -311 -162 -481 -88 -58 25
-163 126 -194 187 -28 55 -51 146 -51 200 0 95 53 233 108 280 15 13 21 21 15
17 -7 -3 -13 -4 -13 -1 0 3 14 13 30 21 18 9 28 21 24 27 -4 6 -3 8 4 4 6 -3
14 -1 18 5 3 6 30 22 58 35 40 19 68 24 129 24 44 0 77 4 77 10 0 13 3 13 78
-5z"/>
<path d="M4410 1514 c-115 -18 -164 -40 -225 -100 -114 -113 -151 -267 -100
-414 59 -169 251 -287 422 -260 60 10 154 46 161 63 2 4 9 4 14 1 6 -4 8 -3 5
3 -4 6 4 15 18 21 36 16 101 104 125 169 31 82 25 214 -12 293 -41 86 -152
189 -223 206 -5 2 -32 9 -60 17 -41 11 -64 11 -125 1z m203 -48 c78 -38 142
-103 180 -184 28 -59 32 -78 32 -152 0 -74 -4 -93 -31 -150 -38 -80 -105 -149
-182 -187 -50 -25 -68 -28 -152 -28 -82 0 -103 4 -152 27 -111 52 -192 157
-218 281 -34 168 84 355 263 413 69 23 193 13 260 -20z"/>
<path d="M6635 2271 c-56 -15 -151 -69 -203 -116 -76 -69 -132 -185 -139 -291
-10 -142 31 -257 127 -354 100 -102 214 -147 352 -137 64 4 89 11 157 47 133
69 218 184 243 330 35 203 -67 396 -257 486 -66 32 -87 37 -163 40 -48 2 -100
0 -117 -5z m275 -58 c36 -17 77 -42 93 -58 15 -15 27 -24 27 -19 0 4 12 -11
27 -33 15 -23 32 -39 37 -36 6 3 8 3 4 -1 -3 -4 5 -31 18 -60 26 -58 47 -187
38 -238 -9 -50 -35 -118 -62 -163 -29 -48 -122 -145 -138 -145 -7 0 -14 -4
-16 -8 -1 -4 -33 -18 -71 -30 -121 -39 -261 -22 -369 47 -82 52 -160 182 -179
299 -15 90 6 196 54 267 18 26 38 57 46 69 24 37 130 108 189 127 88 29 217
21 302 -18z"/>
<path d="M6625 2206 c-196 -62 -321 -255 -285 -441 40 -202 211 -342 409 -334
63 3 141 26 170 51 11 9 22 14 25 11 3 -4 6 0 6 7 0 7 3 11 6 8 11 -12 107 98
131 149 103 222 -5 462 -246 543 -68 23 -155 25 -216 6z m239 -36 c79 -30 164
-111 202 -192 25 -55 29 -75 29 -153 0 -78 -4 -98 -29 -153 -38 -81 -123 -162
-203 -192 -81 -30 -216 -26 -288 9 -74 37 -148 111 -181 184 -25 54 -29 74
-29 152 0 78 4 98 28 150 65 140 211 231 353 221 33 -3 86 -15 118 -26z"/>
<path d="M2110 2252 c-98 -32 -197 -101 -170 -117 6 -4 21 2 33 12 131 116
375 125 506 18 105 -86 133 -125 165 -234 75 -252 -114 -514 -382 -529 -133
-7 -242 30 -324 113 -154 153 -170 415 -35 566 27 29 35 45 28 52 -15 15 -62
-41 -101 -118 -111 -224 -18 -482 214 -596 184 -90 381 -49 528 109 118 128
146 324 68 487 -40 83 -127 165 -225 212 -65 30 -88 36 -163 39 -66 3 -101 0
-142 -14z"/>
<path d="M2125 2194 c-115 -42 -205 -115 -245 -202 -52 -110 -52 -239 0 -345
28 -58 107 -150 126 -146 4 0 10 -3 13 -8 13 -20 119 -62 171 -68 238 -28 440
154 440 395 0 116 -49 214 -146 294 -102 84 -254 118 -359 80z m177 -15 c158
-33 270 -151 298 -312 19 -108 -19 -223 -103 -310 -199 -204 -539 -115 -621
163 -20 68 -20 122 0 190 39 131 138 230 264 264 68 18 95 19 162 5z"/>
<path d="M3140 1646 c-224 -63 -371 -291 -330 -513 14 -79 35 -126 85 -191 51
-67 99 -106 183 -145 63 -30 74 -32 177 -32 90 1 120 5 165 23 113 46 220 153
261 262 76 202 -12 442 -203 554 -92 53 -233 71 -338 42z m279 -43 c35 -14 73
-33 84 -42 126 -99 182 -219 175 -375 -3 -71 -8 -92 -41 -159 -110 -222 -351
-306 -573 -201 -160 76 -263 287 -225 463 14 68 52 147 90 189 16 17 27 32 23
32 -4 0 11 12 33 27 22 14 42 29 45 33 3 3 28 17 55 30 94 46 224 47 334 3z"/>
<path d="M3106 1572 c-52 -20 -84 -41 -128 -85 -68 -68 -83 -94 -104 -184 -36
-154 12 -292 140 -400 14 -13 29 -23 32 -23 3 0 12 -6 20 -14 22 -23 116 -46
187 -47 69 -1 171 23 194 47 8 8 19 12 24 9 5 -4 9 -2 9 4 0 5 14 18 30 28 17
9 30 23 30 29 0 7 7 14 15 17 24 10 63 81 80 148 34 130 5 272 -73 354 -134
140 -293 181 -456 117z m254 -8 c68 -20 115 -50 167 -107 51 -55 77 -105 93
-178 35 -157 -53 -330 -206 -405 -53 -26 -69 -29 -154 -29 -87 0 -101 3 -162
33 -160 78 -244 251 -203 413 54 211 262 333 465 273z"/>
<path d="M5539 1636 c-215 -62 -360 -282 -330 -499 30 -217 225 -386 446 -387
154 0 279 65 376 196 48 66 70 131 77 227 8 132 -36 247 -133 344 -92 92 -168
125 -294 129 -60 2 -113 -2 -142 -10z m222 -22 c94 -28 137 -53 195 -112 30
-31 69 -86 87 -122 30 -61 32 -70 32 -180 0 -109 -2 -118 -32 -181 -38 -78
-121 -166 -192 -203 -105 -54 -265 -57 -376 -5 -28 13 -77 50 -111 84 -109
108 -155 255 -124 392 15 66 58 151 90 180 16 14 27 30 24 34 -3 5 2 9 10 9 8
0 23 11 34 25 11 13 22 21 26 18 3 -3 6 -1 6 6 0 7 4 10 9 7 5 -3 14 1 21 9 7
8 19 15 26 15 8 0 14 4 14 8 0 5 6 9 13 10 6 0 32 5 57 10 69 15 131 14 191
-4z"/>
<path d="M5545 1576 c-55 -17 -106 -45 -132 -70 -79 -76 -95 -97 -117 -152
-47 -116 -44 -220 10 -331 30 -60 141 -169 183 -178 9 -2 36 -12 61 -21 69
-25 199 -16 268 19 28 14 52 24 52 22 0 -3 26 20 59 50 80 76 113 150 119 266
9 171 -66 293 -225 371 -58 28 -80 33 -153 35 -50 2 -101 -3 -125 -11z m220
-21 c61 -19 145 -75 180 -121 75 -98 103 -233 70 -335 -36 -110 -111 -195
-212 -242 -39 -18 -66 -22 -143 -22 -82 0 -103 4 -150 26 -82 39 -144 99 -182
177 -31 62 -33 74 -33 167 1 89 4 106 28 152 88 171 267 251 442 198z"/>
<path d="M7242 1433 c2 -66 7 -98 16 -101 8 -2 12 9 12 36 0 38 1 40 39 46 46
7 71 28 71 60 0 37 -30 56 -89 56 l-52 0 3 -97z"/>
<path d="M7660 1433 l0 -99 45 -2 c52 -2 85 22 85 63 0 46 -65 86 -87 53 -5
-8 -10 4 -13 31 -3 25 -11 46 -17 49 -10 3 -13 -21 -13 -95z"/>
<path d="M7960 1430 l0 -101 46 3 c58 4 90 37 78 82 -8 35 -48 55 -75 38 -17
-11 -19 -9 -20 15 -2 50 -4 56 -16 60 -10 4 -13 -20 -13 -97z"/>
<path d="M2082 693 l3 -98 55 2 c47 2 59 7 83 33 36 41 38 100 2 135 -20 21
-34 25 -85 25 l-61 0 3 -97z"/>
<path d="M6596 613 c-3 -3 -6 -48 -6 -98 l0 -92 50 -2 c43 0 52 3 66 24 32 48
-18 121 -65 95 -20 -10 -21 -8 -21 29 0 38 -10 57 -24 44z"/>
<path d="M6300 533 c-14 -10 -20 -25 -20 -53 0 -46 25 -66 71 -56 32 6 37 -4
13 -28 -18 -19 -28 -20 -56 -5 -25 13 -35 5 -18 -16 17 -21 73 -19 93 3 13 14
17 38 17 93 l0 74 -40 1 c-21 1 -48 -5 -60 -13z"/>
<path d="M4077 503 c-10 -10 -8 -193 2 -193 11 0 21 25 21 56 0 20 5 24 28 24
41 0 72 26 72 60 0 18 -8 34 -22 44 -22 16 -89 22 -101 9z"/>
</g>
</svg>
